# Blender 5.1.0
# www.blender.org
mtllib bread.mtl
o bread
v 0.364531 0.830692 0.690034
v 0.432266 0.830692 0.690034
v 0.567734 0.830692 0.690034
v 0.635469 0.830692 0.690034
v 0.567734 0.830692 0.414800
v 0.432266 0.830692 0.414800
v 0.364531 0.796825 0.690034
v 0.432266 0.796825 0.690034
v 0.567734 0.796825 0.690034
v 0.635469 0.796825 0.690034
v 0.432266 0.796825 0.414800
v 0.601602 0.830692 0.690034
v 0.601602 0.830692 0.414800
v 0.601602 0.796825 0.690034
v 0.601602 0.796825 0.414800
v 0.398398 0.830692 0.690034
v 0.398398 0.830692 0.414800
v 0.398398 0.796825 0.690034
v 0.398398 0.796825 0.414800
v 0.398398 0.830692 0.723901
v 0.432266 0.830692 0.723901
v 0.567734 0.830692 0.723901
v 0.398398 0.796825 0.723901
v 0.432266 0.796825 0.723901
v 0.567734 0.796825 0.723901
v 0.601602 0.830692 0.723901
v 0.601602 0.796825 0.723901
v 0.432266 0.830692 0.740834
v 0.567734 0.796825 0.740834
v 0.567734 0.830692 0.740834
v 0.432266 0.796825 0.740834
v 0.398398 0.796825 0.610241
v 0.398398 0.830692 0.610241
v 0.601602 0.796825 0.610241
v 0.601602 0.830692 0.610241
v 0.364531 0.830692 0.610241
v 0.432266 0.830692 0.610241
v 0.567734 0.830692 0.610241
v 0.635469 0.830692 0.610241
v 0.364531 0.796825 0.610241
v 0.432266 0.796825 0.610241
v 0.567734 0.796825 0.610241
v 0.635469 0.796825 0.610241
v 0.567734 0.796825 0.414800
v 0.364531 0.830692 0.690034
v 0.635469 0.830692 0.690034
v 0.567734 0.830692 0.414800
v 0.432266 0.830692 0.414800
v 0.364531 0.796825 0.690034
v 0.635469 0.796825 0.690034
v 0.432266 0.796825 0.414800
v 0.601602 0.830692 0.690034
v 0.601602 0.830692 0.414800
v 0.601602 0.796825 0.690034
v 0.601602 0.796825 0.414800
v 0.398398 0.830692 0.690034
v 0.398398 0.830692 0.414800
v 0.398398 0.796825 0.690034
v 0.398398 0.796825 0.414800
v 0.398398 0.830692 0.723901
v 0.432266 0.830692 0.723901
v 0.567734 0.830692 0.723901
v 0.398398 0.796825 0.723901
v 0.432266 0.796825 0.723901
v 0.567734 0.796825 0.723901
v 0.601602 0.830692 0.723901
v 0.601602 0.796825 0.723901
v 0.432266 0.830692 0.740834
v 0.567734 0.796825 0.740834
v 0.567734 0.830692 0.740834
v 0.432266 0.796825 0.740834
v 0.398398 0.796825 0.610241
v 0.398398 0.830692 0.610241
v 0.601602 0.796825 0.610241
v 0.601602 0.830692 0.610241
v 0.364531 0.830692 0.610241
v 0.635469 0.830692 0.610241
v 0.364531 0.796825 0.610241
v 0.635469 0.796825 0.610241
v 0.567734 0.796825 0.414800
vn -0.0000 -1.0000 -0.0000
vn -0.0000 1.0000 -0.0000
vn -1.0000 -0.0000 -0.0000
vn 1.0000 -0.0000 -0.0000
vn -0.0000 -0.0000 1.0000
vn -0.0000 -0.0000 -1.0000
vt 0.792247 0.000000
vt 0.792247 0.599448
vt 0.896124 0.599448
vt 0.896124 0.000000
vt 0.792247 0.948062
vt 0.792247 0.844186
vt 0.376742 0.844186
vt 0.376742 0.948062
vt 0.376742 1.000000
vt 0.792247 1.000000
vt 0.272866 0.844186
vt 0.272866 0.948062
vt 0.896124 0.844186
vt 0.896124 0.948062
vt 0.272866 0.599448
vt 0.376742 0.599448
vt 0.376742 0.000000
vt 1.000000 0.844186
vt 1.000000 0.599448
vt 0.168989 0.599448
vt 0.168989 0.844186
vt 0.272866 0.000000
vt 0.000000 0.599447
vt 0.000000 0.844185
vt 0.103876 0.844185
vt 0.103876 0.599447
vt 0.103876 0.000000
vt 0.000000 0.000000
vt 0.103876 0.948062
vt 0.000000 0.948062
vt 0.000000 1.000000
vt 0.103876 1.000000
s 1
usemtl bread
f 11/1/1 41/2/1 32/3/1 19/4/1
f 24/5/1 8/6/1 9/7/1 25/8/1
f 29/9/1 31/10/1 24/5/1 25/8/1
f 14/11/1 27/12/1 25/8/1 9/7/1
f 16/13/2 20/14/2 21/5/2 2/6/2
f 34/15/1 14/11/1 9/7/1 42/16/1
f 5/17/2 6/1/2 37/2/2 38/16/2
f 32/3/1 18/13/1 7/18/1 40/19/1
f 35/15/2 38/16/2 3/7/2 12/11/2
f 42/16/1 41/2/1 11/1/1 44/17/1
f 33/3/2 36/19/2 1/18/2 16/13/2
f 39/20/2 35/15/2 12/11/2 4/21/2
f 38/16/2 37/2/2 2/6/2 3/7/2
f 43/20/1 10/21/1 14/11/1 34/15/1
f 37/2/2 33/3/2 16/13/2 2/6/2
f 8/6/1 24/5/1 23/14/1 18/13/1
f 3/7/2 22/8/2 26/12/2 12/11/2
f 21/5/2 28/10/2 30/9/2 22/8/2
f 8/6/1 41/2/1 42/16/1 9/7/1
f 21/5/2 22/8/2 3/7/2 2/6/2
f 13/22/2 5/17/2 38/16/2 35/15/2
f 6/1/2 17/4/2 33/3/2 37/2/2
f 41/2/1 8/6/1 18/13/1 32/3/1
f 15/22/1 34/15/1 42/16/1 44/17/1
f 78/23/3 49/24/3 45/25/3 76/26/3
f 72/23/3 73/26/3 57/27/3 59/28/3
f 55/28/4 53/27/4 75/26/4 74/23/4
f 52/25/5 54/24/5 50/24/5 46/25/5
f 79/23/4 77/26/4 46/25/4 50/24/4
f 45/25/5 49/24/5 58/24/5 56/25/5
f 48/27/6 51/28/6 59/28/6 57/27/6
f 60/29/5 63/30/5 64/30/5 61/29/5
f 62/29/5 65/30/5 67/30/5 66/29/5
f 52/25/4 66/29/4 67/30/4 54/24/4
f 58/24/3 63/30/3 60/29/3 56/25/3
f 69/31/5 70/32/5 68/32/5 71/31/5
f 64/30/3 71/31/3 68/32/3 61/29/3
f 62/29/4 70/32/4 69/31/4 65/30/4
f 72/23/6 78/23/6 76/26/6 73/26/6
f 75/26/6 77/26/6 79/23/6 74/23/6
f 53/27/6 55/28/6 80/28/6 47/27/6
f 47/27/6 80/28/6 51/28/6 48/27/6
o rope
v 0.359375 0.625000 0.586677
v 0.375000 0.625000 0.586677
v 0.359375 0.625000 0.524177
v 0.375000 0.625000 0.524177
v 0.375000 0.375000 0.586677
v 0.359375 0.375000 0.586677
v 0.359375 0.375000 0.524177
v 0.375000 0.375000 0.524177
v 0.625000 0.625000 0.586677
v 0.640625 0.625000 0.586677
v 0.625000 0.625000 0.524177
v 0.640625 0.625000 0.524177
v 0.640625 0.375000 0.586677
v 0.625000 0.375000 0.586677
v 0.625000 0.375000 0.524177
v 0.640625 0.375000 0.524177
v 0.359375 0.359375 0.524177
v 0.359375 0.375000 0.524177
v 0.359375 0.375000 0.586677
v 0.359375 0.359375 0.586677
v 0.640625 0.375000 0.586677
v 0.640625 0.375000 0.524177
v 0.640625 0.359375 0.586677
v 0.640625 0.359375 0.524177
v 0.625141 0.622632 0.586411
v 0.640484 0.624777 0.586411
v 0.625141 0.622632 0.524443
v 0.640484 0.624777 0.524443
v 0.610827 0.836945 0.586411
v 0.595484 0.834800 0.586411
v 0.595484 0.834800 0.524443
v 0.610827 0.836945 0.524443
v 0.610815 0.828301 0.586008
v 0.610815 0.843444 0.586008
v 0.610815 0.843444 0.524845
v 0.610815 0.828301 0.524845
v 0.374859 0.622632 0.586411
v 0.359516 0.624777 0.586411
v 0.374859 0.622632 0.524443
v 0.359516 0.624777 0.524443
v 0.389173 0.836945 0.586411
v 0.404516 0.834800 0.586411
v 0.404516 0.834800 0.524443
v 0.389173 0.836945 0.524443
v 0.389185 0.828301 0.586008
v 0.389185 0.843444 0.586008
v 0.389185 0.843444 0.524845
v 0.389185 0.828301 0.524845
vn -0.0000 1.0000 -0.0000
vn -0.0000 -1.0000 -0.0000
vn 1.0000 -0.0000 -0.0000
vn -0.0000 -0.0000 1.0000
vn -0.0000 -0.0000 -1.0000
vn -1.0000 -0.0000 -0.0000
vn 0.1384 -0.9904 -0.0000
vn -0.1384 0.9904 -0.0000
vn -0.9904 -0.1384 -0.0000
vn 0.9904 0.1384 -0.0000
vn -0.1384 -0.9904 -0.0000
vn 0.1384 0.9904 -0.0000
vn 0.9904 -0.1384 -0.0000
vn -0.9904 0.1384 -0.0000
vt 0.244850 0.541190
vt 0.380148 0.541190
vt 0.244850 0.000000
vt 0.380148 0.000000
vt 0.244654 0.000000
vt 0.000000 0.000000
vt 0.244654 1.000000
vt 0.000000 1.000000
vt 0.245426 0.536064
vt 0.379572 0.536064
vt 0.379572 0.540707
vt 0.245426 0.540707
vt 0.245426 0.995358
vt 0.245426 1.000000
vt 0.379572 1.000000
vt 0.379572 0.995358
vt 0.242036 0.894008
vt 0.002618 0.894008
vt 0.242036 0.105992
vt 0.245426 0.536065
vt 0.379572 0.536065
vt 0.002618 0.105992
s 0
usemtl rope
f 81/33/7 82/33/7 84/34/7 83/34/7
f 86/35/8 87/36/8 88/36/8 85/35/8
f 82/33/9 85/35/9 88/36/9 84/34/9
f 81/33/10 86/35/10 85/35/10 82/33/10
f 84/34/11 88/36/11 87/36/11 83/34/11
f 83/34/12 87/36/12 86/35/12 81/33/12
f 89/33/7 90/33/7 92/34/7 91/34/7
f 94/35/8 95/36/8 96/36/8 93/35/8
f 90/33/9 93/35/9 96/36/9 92/34/9
f 89/33/10 94/35/10 93/35/10 90/33/10
f 92/34/11 96/36/11 95/36/11 91/34/11
f 91/34/12 95/36/12 94/35/12 89/33/12
f 99/37/12 98/38/12 97/38/12 100/37/12
f 101/39/9 103/39/9 104/40/9 102/40/9
f 100/37/8 97/38/8 104/40/8 103/39/8
f 98/38/7 99/37/7 101/39/7 102/40/7
f 97/38/11 98/38/11 102/40/11 104/40/11
f 99/37/10 100/37/10 103/39/10 101/39/10
f 105/41/13 107/42/13 108/43/13 106/44/13
f 110/45/14 109/46/14 112/47/14 111/48/14
f 107/42/11 111/48/11 112/47/11 108/43/11
f 105/41/15 110/45/15 111/48/15 107/42/15
f 108/43/16 112/47/16 109/46/16 106/44/16
f 106/44/10 109/46/10 110/45/10 105/41/10
f 114/49/9 113/49/9 116/50/9 115/50/9
f 125/51/10 113/49/10 114/49/10 126/51/10
f 117/52/17 118/44/17 120/43/17 119/53/17
f 122/45/18 123/48/18 124/47/18 121/46/18
f 119/53/11 120/43/11 124/47/11 123/48/11
f 117/52/19 119/53/19 123/48/19 122/45/19
f 120/43/20 118/44/20 121/46/20 124/47/20
f 118/44/10 117/52/10 122/45/10 121/46/10
f 126/51/12 127/54/12 128/54/12 125/51/12
f 127/54/11 115/50/11 116/50/11 128/54/11
f 126/51/7 114/49/7 115/50/7 127/54/7
f 128/54/8 116/50/8 113/49/8 125/51/8
