# Blender 5.1.0
# www.blender.org
mtllib butter_big.mtl
o butter_big
v 0.433029 0.897115 0.685302
v 0.415611 0.897115 0.685302
v 0.433029 0.897115 0.477341
v 0.415611 0.897115 0.477341
v 0.433029 0.823107 0.685302
v 0.415611 0.823107 0.685302
v 0.415611 0.823107 0.477341
v 0.433029 0.823107 0.477341
v 0.515403 0.809777 0.830296
v 0.471075 0.809777 0.897279
v 0.438336 0.809777 0.795830
v 0.554040 0.823107 0.685302
v 0.571459 0.823107 0.685302
v 0.571459 0.823107 0.477341
v 0.554040 0.823107 0.477341
v 0.571459 0.897115 0.685302
v 0.554040 0.897115 0.685302
v 0.571459 0.897115 0.477341
v 0.554040 0.897115 0.477341
v 0.554040 0.929828 0.710038
v 0.433029 0.929828 0.710038
v 0.554040 0.929828 0.452857
v 0.433029 0.929828 0.452857
v 0.554040 0.825509 0.710038
v 0.433029 0.825509 0.710038
v 0.433029 0.825509 0.452857
v 0.554040 0.825509 0.452857
v 0.581451 0.836724 0.462691
v 0.562831 0.836724 0.462691
v 0.581451 0.836724 0.441833
v 0.562831 0.836724 0.441833
v 0.581451 0.827646 0.462691
v 0.562831 0.827646 0.462691
v 0.562831 0.827646 0.441833
v 0.581451 0.827646 0.441833
v 0.523787 0.944579 0.685302
v 0.463282 0.944579 0.685302
v 0.523787 0.944579 0.477341
v 0.463282 0.944579 0.477341
v 0.523787 0.929829 0.685302
v 0.463282 0.929829 0.685302
v 0.463282 0.929829 0.477341
v 0.523787 0.929829 0.477341
v 0.458957 0.897115 0.452857
v 0.458957 0.897115 0.435438
v 0.531694 0.897115 0.452857
v 0.531694 0.897115 0.435438
v 0.458957 0.823107 0.452857
v 0.458957 0.823107 0.435438
v 0.531694 0.823107 0.435438
v 0.531694 0.823107 0.452857
v 0.531694 0.897115 0.710038
v 0.531694 0.897115 0.727457
v 0.458957 0.897115 0.710038
v 0.458957 0.897115 0.727457
v 0.531694 0.823107 0.710038
v 0.531694 0.823107 0.727457
v 0.458957 0.823107 0.727457
v 0.458957 0.823107 0.710038
vn -0.0000 1.0000 -0.0000
vn -0.0000 -0.0000 -1.0000
vn -0.0000 -0.0000 1.0000
vn -1.0000 -0.0000 -0.0000
vn 1.0000 -0.0000 -0.0000
vt 0.144356 0.747443
vt 0.144356 0.664094
vt 0.856507 0.664094
vt 0.856507 0.747443
vt 0.144356 0.001701
vt 0.856507 0.001702
vt 0.856507 0.085051
vt 0.144356 0.085051
vt 0.059649 0.664094
vt 0.059649 0.085051
vt 0.940351 0.085051
vt 0.940351 0.664094
vt 0.000000 0.000000
vt 0.075214 0.000000
vt 0.075214 0.075214
vt 0.000000 0.075214
vt 0.144356 0.519333
vt 0.144356 0.229812
vt 0.856507 0.229812
vt 0.856507 0.519334
vt 1.000000 0.540029
vt 0.940351 0.540029
vt 0.940351 0.191980
vt 1.000000 0.191980
vt 0.000000 0.191980
vt 0.059649 0.191980
vt 0.059649 0.540029
vt 0.000000 0.540029
s 1
usemtl m_2
f 2/1/1 1/2/1 3/3/1 4/4/1
f 3/3/2 8/3/2 7/4/2 4/4/2
f 2/1/3 6/1/3 5/2/3 1/2/3
f 4/4/4 7/4/4 6/1/4 2/1/4
f 16/5/5 13/5/5 14/6/5 18/6/5
f 18/6/2 14/6/2 15/7/2 19/7/2
f 17/8/3 12/8/3 13/5/3 16/5/3
f 18/6/1 19/7/1 17/8/1 16/5/1
f 21/9/1 20/10/1 22/11/1 23/12/1
f 20/10/5 24/10/5 27/11/5 22/11/5
f 22/11/2 27/11/2 26/12/2 23/12/2
f 21/9/3 25/9/3 24/10/3 20/10/3
f 23/12/4 26/12/4 25/9/4 21/9/4
f 29/13/1 28/14/1 30/15/1 31/16/1
f 28/13/5 32/14/5 35/15/5 30/16/5
f 30/13/2 35/14/2 34/15/2 31/16/2
f 29/13/3 33/14/3 32/15/3 28/16/3
f 31/13/4 34/14/4 33/15/4 29/16/4
f 37/17/1 36/18/1 38/19/1 39/20/1
f 36/18/5 40/18/5 43/19/5 38/19/5
f 38/19/2 43/19/2 42/20/2 39/20/2
f 37/17/3 41/17/3 40/18/3 36/18/3
f 39/20/4 42/20/4 41/17/4 37/17/4
f 45/21/1 44/22/1 46/23/1 47/24/1
f 46/23/5 51/23/5 50/24/5 47/24/5
f 45/21/4 49/21/4 48/22/4 44/22/4
f 47/24/2 50/24/2 49/21/2 45/21/2
f 53/25/1 52/26/1 54/27/1 55/28/1
f 54/27/4 59/27/4 58/28/4 55/28/4
f 53/25/5 57/25/5 56/26/5 52/26/5
f 55/28/3 58/28/3 57/25/3 53/25/3
