# Blender 5.1.0
# www.blender.org
mtllib butter_small.mtl
o butter_small
v 0.533754 0.839949 0.665094
v 0.459276 0.839949 0.665094
v 0.533754 0.839949 0.498225
v 0.459276 0.839949 0.498225
v 0.533754 0.821793 0.665094
v 0.459276 0.821793 0.665094
v 0.459276 0.821793 0.498225
v 0.533754 0.821793 0.498225
v 0.515403 0.819667 0.830296
v 0.471075 0.819667 0.897279
v 0.438336 0.819667 0.795830
v 0.445600 0.833141 0.663467
v 0.426981 0.833141 0.663467
v 0.445600 0.833141 0.642608
v 0.426981 0.833141 0.642608
v 0.445600 0.828602 0.663467
v 0.426981 0.828602 0.663467
v 0.426981 0.828602 0.642608
v 0.445600 0.828602 0.642608
v 0.548157 0.835410 0.571549
v 0.510918 0.835410 0.571549
v 0.548157 0.835410 0.488115
v 0.510918 0.835410 0.488115
v 0.548157 0.826332 0.571549
v 0.510918 0.826332 0.571549
v 0.510918 0.826332 0.488115
v 0.548157 0.826332 0.488115
vn -0.0000 1.0000 -0.0000
vn 1.0000 -0.0000 -0.0000
vn -0.0000 -0.0000 -1.0000
vn -0.0000 -0.0000 1.0000
vn -1.0000 -0.0000 -0.0000
vt 0.213556 0.538503
vt 0.213556 0.182119
vt 0.784989 0.182120
vt 0.784989 0.538503
vt 0.000000 0.000000
vt 0.075214 0.000000
vt 0.075214 0.075214
vt 0.000000 0.075214
vt 0.533896 0.291393
vt 0.533896 0.113202
vt 0.819613 0.113202
vt 0.819613 0.291393
s 1
usemtl m_2
f 2/1/1 1/2/1 3/3/1 4/4/1
f 1/2/2 5/2/2 8/3/2 3/3/2
f 3/3/3 8/3/3 7/4/3 4/4/3
f 2/1/4 6/1/4 5/2/4 1/2/4
f 4/4/5 7/4/5 6/1/5 2/1/5
f 13/5/1 12/6/1 14/7/1 15/8/1
f 12/5/2 16/6/2 19/7/2 14/8/2
f 14/5/3 19/6/3 18/7/3 15/8/3
f 13/5/4 17/6/4 16/7/4 12/8/4
f 15/5/5 18/6/5 17/7/5 13/8/5
f 21/9/1 20/10/1 22/11/1 23/12/1
f 20/10/2 24/10/2 27/11/2 22/11/2
f 22/11/3 27/11/3 26/12/3 23/12/3
f 21/9/4 25/9/4 24/10/4 20/10/4
f 23/12/5 26/12/5 25/9/5 21/9/5
